# AST/ASF file generated using VICON BodyLanguage
# -----------------------------------------------
:version 1.10
:name VICON
:units
  mass 1.0
  length 0.45
  angle deg
:documentation
   .ast/.asf automatically generated from VICON data using
   VICON BodyBuilder and BodyLanguage model FoxedUp or BRILLIANT.MOD
:root
   order TX TY TZ RX RY RZ
   axis XYZ
   position 0 0 0  
   orientation 0 0 0 
:bonedata
  begin
     id 1 
     name lhipjoint
     direction 0.653368 -0.678499 0.335782 
     length 2.51848 
     axis 0 0 0  XYZ
  end
  begin
     id 2 
     name lfemur
     direction 0.34202 -0.939693 0  
     length 6.57749  
     axis 0 0 20  XYZ
    dof rx ry rz
    limits (-160.0 20.0)
           (-70.0 70.0)
           (-60.0 70.0)
  end
  begin
     id 3 
     name ltibia
     direction 0.34202 -0.939693 0   
     length 7.94618   
     axis 0 0 20   XYZ
    dof rx
    limits (-10.0 170.0)
  end
  begin
     id 4 
     name lfoot
     direction 0.0811271 -0.222895 0.971461   
     length 2.31339   
     axis -90 7.62852e-016 20   XYZ
    dof rx rz
    limits (-45.0 90.0)
           (-70.0 20.0)
  end
  begin
     id 5 
     name ltoes
     direction 1.53568e-011 -4.21885e-011 1   
     length 1.15935   
     axis -90 7.62852e-016 20   XYZ
    dof rx
    limits (-90.0 20.0)
  end
  begin
     id 6 
     name rhipjoint
     direction -0.640058 -0.688614 0.340788   
     length 2.48149  
     axis 0 0 0  XYZ 
  end
  begin
     id 7 
     name rfemur
     direction -0.34202 -0.939693 0   
     length 6.57875   
     axis 0 0 -20   XYZ
    dof rx ry rz
    limits (-160.0 20.0)
           (-70.0 70.0)
           (-70.0 60.0)
  end
  begin
     id 8 
     name rtibia
     direction -0.34202 -0.939693 0   
     length 7.977   
     axis 0 0 -20   XYZ
    dof rx
    limits (-10.0 170.0)
 end
 begin
     id 9 
     name rfoot
     direction -0.0979793 -0.269196 0.958089   
     length 2.19857  
     axis -90 -7.62852e-016 -20   XYZ
    dof rx rz
    limits (-45.0 90.0)
           (-20.0 70.0)
  end
  begin
     id 10 
     name rtoes
     direction -1.53556e-011 -4.21868e-011 1   
     length 1.09838   
     axis -90 -7.62852e-016 -20   XYZ
    dof rx
    limits (-90.0 20.0)
  end
  begin
     id 11 
     name lowerback
     direction 0.0149039 0.998517 -0.0523597   
     length 2.10809   
     axis 0 0 0   XYZ
    dof rx ry rz
    limits (-20.0 45.0)
           (-30.0 30.0)
           (-30.0 30.0)
  end
  begin
     id 12 
     name upperback
     direction -0.00882659 0.999418 -0.0329624   
     length 2.1102   
     axis 0 0 0   XYZ
    dof rx ry rz
    limits (-20.0 45.0)
           (-30.0 30.0)
           (-30.0 30.0)
  end
  begin
     id 13 
     name thorax
     direction -0.0165585 0.999826 -0.0085833   
     length 2.11039   
     axis 0 0 0   XYZ
    dof rx ry rz
    limits (-20.0 45.0)
           (-30.0 30.0)
           (-30.0 30.0)
  end
  begin
     id 14 
     name lowerneck
     direction -0.0130877 0.999911 0.00260353   
     length 1.73253   
     axis 0 0 0   XYZ
    dof rx ry rz
    limits (-20.0 45.0)
           (-30.0 30.0)
           (-30.0 30.0)
  end
  begin
     id 15 
     name upperneck
     direction -0.0348454 0.928205 -0.370435   
     length 1.66692   
     axis 0 0 0   XYZ
    dof rx ry rz
    limits (-20.0 45.0)
           (-30.0 30.0)
           (-30.0 30.0)
  end
  begin
     id 16
     name head
     direction -0.00807754 0.992494 -0.122026  
     length 1.72765  
     axis 0 0 0   XYZ
    dof rx ry rz
    limits (-20.0 45.0)
           (-30.0 30.0)
           (-30.0 30.0)
  end
  begin
     id 17 
     name lclavicle
     direction 0.987582 0.144023 0.0627671  
     length 3.49235  
     axis 0 0 0   XYZ
    dof ry rz
    limits (-20.0 10.0)
           (0.0 20.0)
  end
  begin
     id 18 
     name lhumerus
     direction 1 -4.48958e-011 -1.45183e-018   
     length 5.41917   
     axis 180 -30 -90   XYZ
    dof rx ry rz
    limits (-60.0 90.0)
           (-90.0 90.0)
           (-90.0 90.0)
  end
  begin
     id 19
     name lradius
     direction 1 -4.48999e-011 5.75106e-027   
     length 2.44373   
     axis 180 -30 -90   XYZ
    dof rx
    limits (-10.0 170.0)
  end
  begin
     id 20
     name lwrist
     direction 1 -4.48987e-011 1.53461e-026   
     length 1.22186   
     axis -1.09697e-014 90 90   XYZ
    dof ry
    limits (-180.0 0.0)
 end
  begin
     id 21 
     name lhand
     direction 1 -4.48881e-011 3.06923e-026   
     length 0.727502   
     axis -1.95843e-014 90 90   XYZ
    dof rx rz
    limits (-90.0 90.0)
           (-45.0 45.0)
  end
  begin
     id 22 
     name lfingers
     direction 1 -4.48907e-011 6.13845e-026   
     length 0.586531   
     axis -3.91686e-014 90 90   XYZ
    dof rx
    limits (0.0 90.0)
  end
  begin
     id 23
     name lthumb
     direction 0.707107 -6.3487e-011 0.707107   
     length 0.842145   
     axis -90 45 2.85299e-015   XYZ
    dof rx rz
    limits (-45.0 45.0)
           (-45.0 45.0)
  end
  begin
     id 24 
     name rclavicle
     direction -0.980998 0.169556 0.0943023   
     length 3.29272  
     axis 0 0 0   XYZ 
    dof ry rz
    limits (-10.0 20.0)
           (-20.0 0.0)
  end
  begin
     id 25 
     name rhumerus
     direction -1 -1.83355e-005 2.45537e-005  
     length 5.58976   
     axis 180 30 90   XYZ
    dof rx ry rz
    limits (-90.0 60.0)
           (-90.0 90.0)
           (-90.0 90.0)
  end
  begin
     id 26 
     name rradius
     direction -1 -4.48967e-011 5.97228e-027   
     length 2.4806   
     axis 180 30 90   XYZ
    dof rx
    limits (-10.0 170.0)
  end
  begin
     id 27 
     name rwrist
     direction -1 -4.48963e-011 1.53461e-026   
     length 1.2403   
     axis -1.09697e-014 -90 -90   XYZ
    dof ry
    limits (-180.0 0.0)
  end
  begin
     id 28
     name rhand
     direction -1 -4.48881e-011 3.06923e-026   
     length 0.816009   
     axis -1.95843e-014 -90 -90   XYZ
    dof rx rz
    limits (-90.0 90.0)
           (-45.0 45.0)
  end
  begin
     id 29
     name rfingers
     direction -1 -4.49018e-011 6.13845e-026   
     length 0.657887   
     axis -3.91686e-014 -90 -90   XYZ
    dof rx
    limits (0.0 90.0)
  end
  begin
     id 30
     name rthumb
     direction -0.707107 -6.34872e-011 0.707107   
     length 0.944599   
     axis -90 -45 -2.85299e-015   XYZ
    dof rx rz
    limits (-45.0 45.0)
           (-45.0 45.0)
  end
:hierarchy
  begin
    root lhipjoint rhipjoint lowerback
    lhipjoint lfemur
    lfemur ltibia
    ltibia lfoot
    lfoot ltoes
    rhipjoint rfemur
    rfemur rtibia
    rtibia rfoot
    rfoot rtoes
    lowerback upperback
    upperback thorax
    thorax lowerneck lclavicle rclavicle
    lowerneck upperneck
    upperneck head
    lclavicle lhumerus
    lhumerus lradius
    lradius lwrist
    lwrist lhand lthumb
    lhand lfingers
    rclavicle rhumerus
    rhumerus rradius
    rradius rwrist
    rwrist rhand rthumb
    rhand rfingers
  end

#!OML:ASF F:\VICON\USERDATA\INSTALL\rory3\rory3.ASF
:FULLY-SPECIFIED
:DEGREES
212
root -0.427563 17.2242 16.893 -151.979 -34.5459 -184.046
lowerback -15.1881 -0.326119 4.3965
upperback -7.14579 -1.89847 2.59945
thorax 0.910221 -1.35565 -0.0594636
lowerneck -12.0566 1.49046 -2.7227
upperneck 44.4397 -2.35378 -0.598965
head 19.0039 -3.15342 -0.80983
rclavicle -2.65378e-014 -4.29375e-014
rhumerus -45.1811 -21.9333 -55.0854
rradius 8.50844
rwrist 21.9102
rhand -8.26756 18.7349
rfingers 7.12502
rthumb 17.6514 -10.4839
lclavicle -2.65378e-014 -4.29375e-014
lhumerus -50.3832 17.3049 68.879
lradius 39.9469
lwrist -2.56679
lhand 2.28526 16.9376
lfingers 7.12502
lthumb 27.7774 44.9051
rfemur -31.7245 6.49076 26.6704
rtibia 24.8359
rfoot -50.2133 -35.4682
rtoes 40.0603
lfemur -5.92795 13.0316 -20.4583
ltibia 30.8995
lfoot -23.5245 42.6925
ltoes 42.0887
213
root -0.420998 17.2252 16.9015 -151.883 -34.7172 -184.043
lowerback -15.3423 -0.34396 4.3964
upperback -7.17874 -1.94104 2.63975
thorax 0.957177 -1.37991 -0.0270931
lowerneck -12.0421 1.50839 -2.63829
upperneck 44.4149 -2.29098 -0.699692
head 18.9797 -3.12451 -0.859788
rclavicle -2.90226e-014 -2.8625e-014
rhumerus -45.0859 -21.6573 -55.4909
rradius 8.23288
rwrist 21.9663
rhand -8.02694 18.6298
rfingers 7.12502
rthumb 17.8829 -10.568
lclavicle -2.90226e-014 -2.8625e-014
lhumerus -50.1275 17.3166 69.0145
lradius 40.3526
lwrist -2.86999
lhand 2.62657 16.338
lfingers 7.12502
lthumb 28.1037 44.2524
rfemur -31.8764 6.36838 26.7357
rtibia 24.8464
rfoot -50.2806 -35.3062
rtoes 39.9384
lfemur -6.10404 13.2087 -20.7926
ltibia 31.2655
lfoot -22.3326 43.5799
ltoes 42.1045
214
root -0.416788 17.2251 16.9149 -151.794 -34.9526 -183.879
lowerback -15.5083 -0.279145 4.65178
upperback -7.27693 -1.91715 2.62928
thorax 0.932674 -1.38417 -0.17926
lowerneck -12.047 1.5281 -2.52852
upperneck 44.5144 -2.34103 -0.654501
head 19.0462 -3.12547 -0.873164
rclavicle 7.25564e-015 -2.70347e-014
rhumerus -45.2115 -21.45 -55.8568
rradius 8.19204
rwrist 21.8392
rhand -7.54835 18.5447
rfingers 7.12502
rthumb 18.3434 -10.6104
lclavicle 7.25564e-015 -2.70347e-014
lhumerus -49.901 17.0702 69.2247
lradius 40.8913
lwrist -3.06659
lhand 2.86146 15.9771
lfingers 7.12502
lthumb 28.3282 43.8544
rfemur -32.1195 6.03097 26.9897
rtibia 24.8033
rfoot -49.9388 -35.2698
rtoes 40.1252
lfemur -6.43287 13.222 -21.0008
ltibia 31.7394
lfoot -21.9001 44.0282
ltoes 42.8462
215
root -0.413106 17.2234 16.9307 -151.87 -35.0455 -183.706
lowerback -15.469 -0.198212 4.85568
upperback -7.36459 -1.84497 2.62306
thorax 0.814598 -1.36213 -0.285453
lowerneck -11.9205 1.56739 -2.46512
upperneck 44.6067 -2.38713 -0.565301
head 19.0723 -3.133 -0.85427
rclavicle 4.32357e-014 7.15625e-014
rhumerus -45.4219 -21.1284 -56.1382
rradius 8.28454
rwrist 21.5201
rhand -7.29533 18.8128
rfingers 7.12502
rthumb 18.5868 -10.3192
lclavicle 4.32357e-014 7.15625e-014
lhumerus -49.7393 16.4838 69.6346
lradius 41.5813
lwrist -2.90444
lhand 2.84736 15.8627
lfingers 7.12502
lthumb 28.3147 43.7422
rfemur -32.1927 5.98507 27.1466
rtibia 24.7738
rfoot -49.6862 -35.2179
rtoes 40.7631
lfemur -6.54307 13.335 -21.1871
ltibia 32.149
lfoot -20.2365 44.8661
ltoes 42.823
216
root -0.411706 17.2225 16.9449 -152.067 -35.1577 -183.515
lowerback -15.3318 -0.166599 5.13251
upperback -7.44213 -1.83594 2.61076
thorax 0.650421 -1.37258 -0.446251
lowerneck -11.6796 1.62121 -2.36338
upperneck 44.6243 -2.3977 -0.5266
head 19.0148 -3.12805 -0.854741
rclavicle 7.7526e-015 4.77083e-015
rhumerus -45.61 -20.7071 -56.5403
rradius 8.36241
rwrist 21.2985
rhand -7.56098 19.4544
rfingers 7.12502
rthumb 18.3312 -9.7019
lclavicle 7.7526e-015 4.77083e-015
lhumerus -49.7242 15.9962 69.7993
lradius 42.2711
lwrist -2.75484
lhand 2.80597 15.9314
lfingers 7.12502
lthumb 28.2751 43.8175
rfemur -32.1413 5.85469 27.3686
rtibia 24.788
rfoot -49.5413 -35.1508
rtoes 40.7979
lfemur -6.56285 13.3871 -21.3352
ltibia 32.5353
lfoot -18.7737 45.7556
ltoes 43.1198
217
root -0.405232 17.2233 16.962 -152.052 -35.2936 -183.525
lowerback -15.3179 -0.0547391 5.213
upperback -7.5293 -1.69766 2.46952
thorax 0.549549 -1.31454 -0.615578
lowerneck -11.4707 1.53254 -2.11109
upperneck 44.6306 -2.6303 -0.572082
head 18.9591 -3.18926 -0.962358
rclavicle -1.70955e-014 1.27222e-014
rhumerus -46.1528 -20.6129 -56.732
rradius 8.67326
rwrist 21.207
rhand -7.5683 19.9048
rfingers 7.12502
rthumb 18.3242 -9.25216
lclavicle -1.70955e-014 1.27222e-014
lhumerus -49.4931 15.2472 70.1034
lradius 42.8996
lwrist -2.69132
lhand 2.69777 16.1095
lfingers 7.12502
lthumb 28.1717 44.0127
rfemur -32.2798 5.85736 27.3555
rtibia 24.8808
rfoot -49.5741 -35.2183
rtoes 40.8017
lfemur -6.76282 13.3928 -21.6864
ltibia 32.8762
lfoot -16.6109 46.7265
ltoes 43.3009
218
root -0.398702 17.2232 16.9773 -151.989 -35.3908 -183.677
lowerback -15.3219 -0.265889 4.97938
upperback -7.42862 -1.94416 2.6925
thorax 0.663336 -1.41935 -0.291665
lowerneck -11.7995 1.61965 -2.37475
upperneck 44.6238 -2.29175 -0.693696
head 19.0441 -3.10337 -0.914792
rclavicle 4.17448e-015 4.92986e-014
rhumerus -45.6789 -19.925 -57.1782
rradius 8.81464
rwrist 21.1764
rhand -7.42495 19.9812
rfingers 7.12502
rthumb 18.4621 -9.16271
lclavicle 4.17448e-015 4.92986e-014
lhumerus -49.2784 15.7532 70.4203
lradius 43.5071
lwrist -2.89589
lhand 2.60373 16.1115
lfingers 7.12502
lthumb 28.0818 44.0295
rfemur -32.4029 5.65582 27.2846
rtibia 25.0335
rfoot -49.5039 -35.0443
rtoes 41.0845
lfemur -6.92653 13.4165 -22.186
ltibia 33.189
lfoot -13.6784 47.5452
ltoes 42.8608
219
root -0.394871 17.2225 16.9902 -151.997 -35.5688 -183.753
lowerback -15.3443 -0.384891 4.91409
upperback -7.30248 -2.08653 2.80236
thorax 0.809634 -1.47529 -0.165889
lowerneck -12.1579 1.64694 -2.51766
upperneck 44.6566 -2.16527 -0.649509
head 19.1686 -3.05712 -0.849192
rclavicle -3.79679e-014 -3.33958e-014
rhumerus -45.2504 -19.5439 -57.6203
rradius 8.74158
rwrist 21.1714
rhand -7.04929 19.6885
rfingers 7.12502
rthumb 18.8234 -9.42073
lclavicle -3.79679e-014 -3.33958e-014
lhumerus -48.8835 15.556 70.9706
lradius 44.2503
lwrist -2.60523
lhand 2.42227 16.2014
lfingers 7.12502
lthumb 27.9084 44.1477
rfemur -32.4855 5.36068 27.3179
rtibia 25.2208
rfoot -49.5625 -34.6915
rtoes 41.4188
lfemur -7.03962 13.4962 -22.548
ltibia 33.5049
lfoot -10.6627 47.9381
ltoes 42.5816
220
root -0.388289 17.2205 17.0061 -152.022 -35.7073 -183.828
lowerback -15.2428 -0.479645 4.87028
upperback -7.24216 -2.19187 2.87792
thorax 0.820536 -1.51971 -0.0771208
lowerneck -12.4837 1.74038 -2.50528
upperneck 44.8012 -1.96368 -0.73963
head 19.354 -2.98479 -0.870081
rclavicle -1.56046e-013 3.33958e-014
rhumerus -44.8392 -19.1785 -58.0858
rradius 8.5075
rwrist 21.1242
rhand -6.51557 19.2029
rfingers 7.12502
rthumb 19.3367 -9.85567
lclavicle -1.56046e-013 3.33958e-014
lhumerus -48.6163 15.1863 71.5224
lradius 45.0447
lwrist -2.14088
lhand 2.20459 16.5069
lfingers 7.12502
lthumb 27.7002 44.4868
rfemur -32.5855 5.04773 27.339
rtibia 25.4037
rfoot -49.4305 -34.6302
rtoes 41.2962
lfemur -7.18929 13.6506 -22.9249
ltibia 33.8437
lfoot -8.373 48.1645
ltoes 42.7249
221
root -0.378647 17.2196 17.0285 -152.019 -35.6487 -183.763
lowerback -15.1212 -0.413098 4.93304
upperback -7.24015 -2.10304 2.89613
thorax 0.759654 -1.47717 -0.0761648
lowerneck -12.6507 1.75967 -2.30353
upperneck 44.7432 -1.81241 -1.00354
head 19.3563 -2.90998 -1.00383
rclavicle -7.15625e-015 1.59028e-014
rhumerus -44.5748 -18.9531 -58.4773
rradius 8.46066
rwrist 20.9142
rhand -6.12853 18.9917
rfingers 7.12502
rthumb 19.7088 -10.0292
lclavicle -7.15625e-015 1.59028e-014
lhumerus -48.2766 14.8838 71.897
lradius 45.5834
lwrist -1.75705
lhand 1.97785 16.5356
lfingers 7.12502
lthumb 27.4834 44.5501
rfemur -32.81 4.84381 27.4175
rtibia 25.4993
rfoot -49.0225 -34.7196
rtoes 40.8457
lfemur -7.65588 14.1871 -23.3465
ltibia 34.2795
lfoot -2.14555 48.6038
ltoes 41.0378
222
root -0.365402 17.2154 17.0428 -152.167 -35.7208 -183.705
lowerback -14.9554 -0.394931 4.9067
upperback -7.20411 -2.05731 2.93391
thorax 0.713867 -1.44967 -0.0113325
lowerneck -12.9758 1.79 -2.71886
upperneck 45.0057 -1.84295 -0.582693
head 19.6379 -2.94374 -0.74675
rclavicle 2.78299e-015 -2.70347e-014
rhumerus -44.5779 -18.7077 -58.7542
rradius 8.78125
rwrist 20.5089
rhand -6.09986 19.1318
rfingers 7.12502
rthumb 19.7364 -9.88628
lclavicle 2.78299e-015 -2.70347e-014
lhumerus -48.0289 14.7986 71.9846
lradius 45.9612
lwrist -1.51747
lhand 2.04022 16.1847
lfingers 7.12502
lthumb 27.543 44.1897
rfemur -32.7553 5.11211 27.431
rtibia 25.5466
rfoot -49.4069 -34.6696
rtoes 41.4969
lfemur -7.99163 14.8281 -23.6189
ltibia 34.7639
lfoot 4.73536 48.348
ltoes 38.7602
223
root -0.351035 17.2097 17.0574 -152.464 -35.8472 -183.372
lowerback -14.8688 -0.266249 5.09528
upperback -7.19253 -1.90749 2.96082
thorax 0.679452 -1.37938 -0.0642233
lowerneck -12.8443 1.7209 -2.77352
upperneck 45.0185 -2.04397 -0.389164
head 19.6152 -3.00785 -0.677957
rclavicle 4.35338e-014 -5.88403e-014
rhumerus -44.7578 -18.6286 -58.9708
rradius 9.0196
rwrist 20.2147
rhand -5.8558 19.2059
rfingers 7.12502
rthumb 19.971 -9.78783
lclavicle 4.35338e-014 -5.88403e-014
lhumerus -47.9089 14.4577 72.0004
lradius 46.347
lwrist -1.61151
lhand 2.18218 15.6098
lfingers 7.12502
lthumb 27.6788 43.5932
rfemur -32.6779 5.14205 27.8145
rtibia 25.5713
rfoot -49.4664 -34.5342
rtoes 41.8521
lfemur -8.32171 15.3025 -23.6538
ltibia 35.2708
lfoot 5.0542 48.2222
ltoes 39.2075
